<?xml version="1.0" encoding="utf-8"?>
<svg version="1.0" x="0px" y="0px" width="3032px" height="625px" viewBox="0 0 3032 625" id="svg30" xmlns="http://www.w3.org/2000/svg">
  <defs id="defs34">
    <clipPath clipPathUnits="userSpaceOnUse" id="clipPath198">
      <polygon stroke="#cbcbcb" stroke-opacity="1" stroke-linecap="round" points="2493.593,222.726 2506.469,196.648 2522.525,172.852 2541.541,151.547 2563.294,132.943 2587.563,117.251 2614.125,104.68 2642.757,95.44 2673.238,89.743 2705.347,87.797 2737.653,89.743 2768.3,95.44 2797.068,104.68 2823.738,117.251 2848.091,132.943 2869.908,151.547 2888.97,172.852 2905.057,196.648 2917.95,222.726 2927.432,250.874 2933.28,280.883 2935.279,312.543 2933.281,344.021 2927.432,373.912 2917.951,401.996 2905.057,428.054 2888.97,451.866 2869.908,473.215 2848.091,491.88 2823.739,507.643 2797.068,520.285 2768.3,529.585 2737.653,535.327 2705.347,537.289 2673.238,535.327 2642.757,529.585 2614.125,520.285 2587.563,507.643 2563.294,491.88 2541.541,473.215 2522.525,451.866 2506.469,428.054 2493.593,401.996 2484.122,373.912 2478.276,344.021 2476.378,314.117 2476.278,312.543 2478.276,280.883 2484.122,250.874 " style="display:none;fill:#bada55;stroke-width:9px" id="polygon200" d="m 2493.593,222.726 12.876,-26.078 16.056,-23.796 19.016,-21.305 21.753,-18.604 24.269,-15.692 26.562,-12.571 28.632,-9.24 30.481,-5.697 32.109,-1.946 32.306,1.946 30.647,5.697 28.768,9.24 26.67,12.571 24.353,15.692 21.817,18.604 19.062,21.305 16.087,23.796 12.893,26.078 9.482,28.148 5.848,30.009 1.999,31.66 -1.998,31.478 -5.849,29.891 -9.481,28.084 -12.894,26.058 -16.087,23.812 -19.062,21.349 -21.817,18.665 -24.352,15.763 -26.671,12.642 -28.768,9.3 -30.647,5.742 -32.306,1.962 -32.109,-1.962 -30.481,-5.742 -28.632,-9.3 -26.562,-12.642 -24.269,-15.763 -21.753,-18.665 -19.016,-21.349 -16.056,-23.812 -12.876,-26.058 -9.471,-28.084 -5.846,-29.891 -1.898,-29.904 -0.1,-1.574 1.998,-31.66 5.846,-30.009 z"/>
      <path id="lpe_path-effect202" style="fill:#bada55;stroke-width:9px" class="powerclip" d="m 2379.4639,0.49178596 h 652.6289 V 624.59444 H 2379.4639 Z M 2493.593,222.726 l -9.471,28.148 -5.846,30.009 -1.998,31.66 0.1,1.574 1.898,29.904 5.846,29.891 9.471,28.084 12.876,26.058 16.056,23.812 19.016,21.349 21.753,18.665 24.269,15.763 26.562,12.642 28.632,9.3 30.481,5.742 32.109,1.962 32.306,-1.962 30.647,-5.742 28.768,-9.3 26.671,-12.642 24.352,-15.763 21.817,-18.665 19.062,-21.349 16.087,-23.812 12.894,-26.058 9.481,-28.084 5.849,-29.891 1.998,-31.478 -1.999,-31.66 -5.848,-30.009 -9.482,-28.148 -12.893,-26.078 -16.087,-23.796 -19.062,-21.305 -21.817,-18.604 -24.353,-15.692 -26.67,-12.571 -28.768,-9.24 -30.647,-5.697 -32.306,-1.946 -32.109,1.946 -30.481,5.697 -28.632,9.24 -26.562,12.571 -24.269,15.692 -21.753,18.604 -19.016,21.305 -16.056,23.796 z"/>
    </clipPath>
  </defs>
  <polygon stroke-opacity="1" stroke-linecap="round" points="1988.142 97.977 1999.241 94.809 2010.731 92.395 2022.58 90.675 2034.79 89.645 2047.36 89.302 2063.188 89.726 2078.255 90.963 2092.553 92.962 2106.076 95.673 2118.819 99.044 2130.776 103.025 2141.94 107.563 2152.306 112.609 2161.867 118.111 2170.618 124.019 2178.553 130.28 2185.666 136.845 2192.752 144.678 2198.924 153.048 2204.237 161.953 2208.748 171.389 2212.516 181.353 2215.596 191.843 2218.045 202.854 2219.922 214.385 2221.282 226.432 2222.183 238.993 2222.681 252.064 2222.835 265.642 2222.835 608.812 2307.547 608.812 2307.547 250.947 2305.745 215.911 2300.332 183.087 2291.299 152.634 2278.637 124.711 2262.338 99.478 2242.392 77.092 2218.791 57.715 2191.524 41.504 2160.584 28.618 2125.961 19.217 2087.646 13.46 2045.631 11.505 2014.653 12.976 1984.226 17.436 1954.76 24.958 1926.663 35.613 1900.343 49.473 1876.207 66.612 1853.718 84.838 1838.488 99.478 1818.542 77.092 1794.94 57.715 1767.674 41.504 1736.734 28.618 1702.111 19.217 1663.796 13.46 1621.781 11.505 1590.802 12.976 1560.376 17.436 1530.91 24.958 1502.813 35.613 1476.492 49.473 1452.357 66.611 1430.815 87.099 1412.274 111.008 1397.143 138.411 1385.829 169.38 1378.742 203.986 1376.289 242.302 1376.289 608.812 1461.001 608.812 1461.001 260.455 1461.187 244.604 1461.765 230.241 1462.77 217.235 1464.234 205.453 1466.191 194.764 1468.672 185.035 1471.712 176.135 1475.344 167.931 1479.599 160.292 1484.512 153.084 1490.115 146.177 1496.442 139.438 1505.05 131.37 1514.018 124.019 1523.346 117.382 1533.035 111.457 1543.084 106.24 1553.493 101.728 1564.262 97.919 1575.391 94.809 1586.88 92.395 1598.73 90.675 1610.94 89.645 1623.51 89.302 1639.338 89.726 1654.404 90.963 1668.702 92.962 1682.225 95.673 1694.969 99.044 1706.925 103.025 1718.089 107.563 1728.455 112.609 1738.017 118.111 1746.768 124.019 1754.703 130.28 1761.815 136.845 1768.902 144.678 1775.073 153.048 1780.386 161.953 1784.898 171.389 1788.665 181.353 1791.745 191.843 1794.195 202.854 1796.071 214.385 1797.431 226.433 1798.332 238.993 1798.831 252.064 1798.985 265.642 1800.031 607.492 1884.169 608.618 1884.851 260.455 1885.037 244.604 1885.616 230.241 1886.621 217.235 1888.085 205.453 1890.041 194.764 1892.523 185.035 1895.563 176.135 1899.194 167.931 1903.45 160.292 1908.362 153.084 1913.966 146.177 1920.292 139.438 1928.9 131.37 1937.868 124.019 1947.197 117.382 1956.885 111.457 1966.934 106.24 1977.373 101.787" style="stroke-width: 9px;" id="polygon18"/>
  <polygon stroke-opacity="1" stroke-linecap="round" points="517.408 17.78 510.348 17.78 503.289 17.78 496.23 17.78 489.17 17.78 482.111 17.78 475.052 17.78 467.992 17.78 460.933 17.78 453.874 17.78 446.814 17.78 439.755 17.78 432.696 17.78 432.696 46.377 432.696 74.975 432.696 103.572 432.696 132.17 432.696 160.767 432.696 189.365 432.696 217.962 432.696 246.56 432.696 275.157 432.696 303.755 432.696 332.352 432.696 360.95 432.542 374.528 432.043 387.598 431.143 400.159 429.782 412.206 427.906 423.737 425.456 434.749 422.376 445.238 418.609 455.202 414.098 464.638 408.785 473.543 402.613 481.914 395.526 489.747 388.414 496.312 380.479 502.573 371.728 508.48 362.166 513.982 351.801 519.028 340.636 523.567 328.68 527.547 315.936 530.918 302.413 533.629 288.115 535.629 273.049 536.865 257.221 537.289 244.651 536.947 232.441 535.917 220.591 534.196 209.102 531.783 197.973 528.673 187.204 524.863 176.795 520.352 166.746 515.135 157.057 509.209 147.729 502.573 138.761 495.222 130.153 487.154 123.826 480.414 118.223 473.507 113.31 466.3 109.055 458.66 105.423 450.456 102.384 441.556 99.902 431.827 97.946 421.138 96.481 409.357 95.476 396.351 94.898 381.988 94.712 366.136 94.712 337.107 94.712 308.077 94.712 279.047 94.712 250.017 94.712 220.988 94.712 191.958 94.712 162.928 94.712 133.898 94.712 104.869 94.712 75.839 94.712 46.809 94.712 17.78 87.653 17.78 80.593 17.78 73.534 17.78 66.475 17.78 59.415 17.78 52.356 17.78 45.297 17.78 38.237 17.78 31.178 17.78 24.119 17.78 17.059 17.78 10 17.78 10 48.322 10 78.865 10 109.407 10 139.949 10 170.492 10 201.034 10 231.577 10 262.119 10 292.662 10 323.204 10 353.747 10 384.289 12.453 422.605 19.54 457.211 30.854 488.18 45.985 515.583 64.526 539.492 86.068 559.98 110.203 577.118 136.524 590.979 164.621 601.634 194.087 609.155 224.513 613.615 255.492 615.086 297.507 613.132 335.822 607.375 370.445 597.974 401.385 585.088 428.651 568.877 452.253 549.499 472.199 527.114 488.498 501.88 501.16 473.958 510.192 443.505 515.605 410.681 517.408 375.645 517.408 345.823 517.408 316.001 517.408 286.178 517.408 256.356 517.408 226.534 517.408 196.712 517.408 166.89 517.408 137.068 517.408 107.246 517.408 77.424 517.408 47.602 517.408 19.271" style="stroke-width: 9px;" id="polygon20"/>
  <polygon stroke-opacity="1" stroke-linecap="round" points="2388.973 312.543 2391.483 352.089 2398.894 390.48 2411.029 427.28 2427.711 462.054 2448.764 494.366 2474.009 523.783 2503.271 549.868 2536.371 572.186 2573.133 590.302 2613.379 603.781 2656.933 612.187 2703.618 615.086 2751.84 612.171 2796.578 603.721 2837.696 590.18 2875.059 571.994 2908.532 549.605 2937.98 523.459 2963.269 493.999 2984.263 461.669 3000.826 426.915 3012.824 390.18 3020.122 351.908 3022.584 312.543 3020.057 272.089 3012.592 233.106 3000.367 195.983 2983.558 161.111 2962.344 128.881 2936.9 99.682 2907.404 73.905 2874.034 51.94 2836.966 34.177 2796.377 21.005 2752.445 12.816 2705.347 10 2658.991 12.833 2615.58 21.065 2575.321 34.298 2538.419 52.132 2505.084 74.168 2475.522 100.007 2449.939 129.249 2428.544 161.496 2411.542 196.348 2399.142 233.406 2391.55 272.271 2389.102 310.529" style="stroke-width: 9px;" id="polygon22" clip-path="url(#clipPath198)" d="m 2388.973,312.543 2.51,39.546 7.411,38.391 12.135,36.8 16.682,34.774 21.053,32.312 25.245,29.417 29.262,26.085 33.1,22.318 36.762,18.116 40.246,13.479 43.554,8.406 46.685,2.899 48.222,-2.915 44.738,-8.45 41.118,-13.541 37.363,-18.186 33.473,-22.389 29.448,-26.146 25.289,-29.46 20.994,-32.33 16.563,-34.754 11.998,-36.735 7.298,-38.272 2.462,-39.365 -2.527,-40.454 -7.465,-38.983 -12.225,-37.123 -16.809,-34.872 -21.214,-32.23 -25.444,-29.199 -29.496,-25.777 -33.37,-21.965 -37.068,-17.763 -40.589,-13.172 -43.932,-8.189 -47.098,-2.816 -46.356,2.833 -43.411,8.232 -40.259,13.233 -36.902,17.834 -33.335,22.036 -29.562,25.839 -25.583,29.242 -21.395,32.247 -17.002,34.852 -12.4,37.058 -7.592,38.865 -2.448,38.258 z"/>
  <polygon stroke-opacity="1" stroke-linecap="round" points="1105.419 608.853 1098.359 608.853 1091.3 608.853 1084.241 608.853 1077.181 608.853 1070.122 608.853 1063.063 608.853 1056.003 608.853 1048.944 608.853 1041.885 608.853 1034.825 608.853 1027.766 608.853 1020.707 608.853 1020.707 580.256 1020.707 551.658 1020.707 523.061 1020.707 494.463 1020.707 465.866 1020.707 437.268 1020.707 408.671 1020.707 380.073 1020.707 351.476 1020.707 322.878 1020.707 294.281 1020.707 265.683 1020.553 252.105 1020.054 239.035 1019.153 226.474 1017.793 214.427 1015.917 202.896 1013.467 191.884 1010.387 181.395 1006.62 171.431 1002.108 161.995 996.795 153.09 990.624 144.719 983.537 136.886 976.425 130.322 968.49 124.06 959.739 118.153 950.177 112.651 939.811 107.605 928.647 103.066 916.69 99.086 903.948 95.715 890.424 93.004 876.126 91.005 861.06 89.768 845.232 89.344 832.662 89.687 820.452 90.717 808.602 92.437 797.113 94.85 785.984 97.96 775.215 101.77 764.806 106.281 754.757 111.498 745.068 117.424 735.74 124.06 726.772 131.411 718.164 139.479 711.837 146.219 706.234 153.126 701.321 160.333 697.066 167.973 693.435 176.177 690.395 185.077 687.913 194.806 685.956 205.495 684.492 217.276 683.487 230.282 682.909 244.645 682.723 260.497 682.723 289.526 682.723 318.556 682.723 347.586 682.723 376.616 682.723 405.645 682.723 434.675 682.723 463.705 682.723 492.735 682.723 521.764 682.723 550.794 682.723 579.824 682.723 608.853 675.664 608.853 668.604 608.853 661.545 608.853 654.486 608.853 647.426 608.853 640.367 608.853 633.308 608.853 626.248 608.853 619.189 608.853 612.13 608.853 605.07 608.853 598.011 608.853 598.011 578.311 598.011 547.769 598.011 517.226 598.011 486.684 598.011 456.141 598.011 425.599 598.011 395.056 598.011 364.514 598.011 333.971 598.011 303.429 598.011 272.887 598.011 242.344 600.464 204.028 607.551 169.422 618.865 138.453 633.996 111.05 652.537 87.141 674.079 66.653 698.214 49.515 724.535 35.655 752.632 24.999 782.098 17.478 812.524 13.018 843.503 11.547 885.518 13.501 923.833 19.259 958.456 28.66 989.396 41.545 1016.662 57.756 1040.264 77.134 1060.21 99.519 1076.509 124.753 1089.171 152.675 1098.203 183.128 1103.616 215.952 1105.419 250.988 1105.419 280.81 1105.419 310.632 1105.419 340.455 1105.419 370.277 1105.419 400.099 1105.419 429.921 1105.419 459.743 1105.419 489.565 1105.419 519.387 1105.419 549.209 1105.419 579.031 1105.419 607.362" style="stroke-width: 9px;" id="polygon26"/>
  <polygon stroke-opacity="1" stroke-linecap="round" points="1290.634 17.933 1283.575 17.933 1276.516 17.933 1269.456 17.933 1262.397 17.933 1255.338 17.933 1248.278 17.933 1241.219 17.933 1234.16 17.933 1227.1 17.933 1220.041 17.933 1212.982 17.933 1205.922 17.933 1205.922 67.06 1205.922 116.187 1205.922 165.314 1205.922 214.442 1205.922 263.569 1205.922 312.696 1205.922 361.823 1205.922 410.95 1205.922 460.078 1205.922 509.205 1205.922 558.332 1205.922 607.459 1212.982 607.459 1220.041 607.459 1227.1 607.459 1234.16 607.459 1241.219 607.459 1248.278 607.459 1255.338 607.459 1262.397 607.459 1269.456 607.459 1276.516 607.459 1283.575 607.459 1290.634 607.459 1290.634 558.332 1290.634 509.205 1290.634 460.078 1290.634 410.95 1290.634 361.823 1290.634 312.696 1290.634 263.569 1290.634 214.442 1290.634 165.314 1290.634 116.187 1290.634 67.06 1290.634 20.389" style="stroke-width: 9px;" id="polygon28"/>
</svg>